HIERARCHY
ROOT Hips
{
	OFFSET -14.64140 90.27770 -84.91600
	CHANNELS 6 Xposition Yposition Zposition Zrotation Xrotation Yrotation
	JOINT Spine
	{
		OFFSET 0.00000 13.20850 -1.60436
		CHANNELS 3 Zrotation Xrotation Yrotation
		JOINT Spine1
		{
			OFFSET 0.00000 8.61716 0.00000
			CHANNELS 3 Zrotation Xrotation Yrotation
			JOINT Spine2
			{
				OFFSET 0.00000 8.61717 0.00000
				CHANNELS 3 Zrotation Xrotation Yrotation
				JOINT Spine3
				{
					OFFSET 0.00000 8.61717 0.00000
					CHANNELS 3 Zrotation Xrotation Yrotation
					JOINT Neck
					{
						OFFSET 0.00000 11.07920 1.10792
						CHANNELS 3 Zrotation Xrotation Yrotation
						JOINT Neck1
						{
							OFFSET 0.00000 7.08032 0.00000
							CHANNELS 3 Zrotation Xrotation Yrotation
							JOINT Head
							{
								OFFSET 0.00000 7.08031 0.00000
								CHANNELS 3 Zrotation Xrotation Yrotation
								End site
								{
									OFFSET 0.00000 0.00000 0.00000
								}
							}
						}
					}
					JOINT RightShoulder
					{
						OFFSET -0.01000 7.91373 5.19711
						CHANNELS 3 Zrotation Xrotation Yrotation
						JOINT RightArm
						{
							OFFSET -18.41580 0.00000 0.00000
							CHANNELS 3 Zrotation Xrotation Yrotation
							JOINT RightForeArm
							{
								OFFSET -29.11090 0.00000 0.00000
								CHANNELS 3 Zrotation Xrotation Yrotation
								JOINT RightHand
								{
									OFFSET -24.65040 0.00000 0.00000
									CHANNELS 3 Zrotation Xrotation Yrotation
									JOINT RightHandThumb1
									{
										OFFSET -5.35114 -0.85590 3.97906
										CHANNELS 3 Zrotation Xrotation Yrotation
										JOINT RightHandThumb2
										{
											OFFSET -4.52789 0.00000 0.00000
											CHANNELS 3 Zrotation Xrotation Yrotation
											JOINT RightHandThumb3
											{
												OFFSET -2.46976 0.00000 0.00000
												CHANNELS 3 Zrotation Xrotation Yrotation
												End site
												{
													OFFSET 0.00000 0.00000 0.00000
												}
											}
										}
									}
									JOINT RightHandIndex1
									{
										OFFSET -14.26970 0.00000 2.88139
										CHANNELS 3 Zrotation Xrotation Yrotation
										JOINT RightHandIndex2
										{
											OFFSET -5.48836 0.00000 0.00000
											CHANNELS 3 Zrotation Xrotation Yrotation
											JOINT RightHandIndex3
											{
												OFFSET -3.01859 0.00000 0.00000
												CHANNELS 3 Zrotation Xrotation Yrotation
												End site
												{
													OFFSET 0.00000 0.00000 0.00000
												}
											}
										}
									}
									JOINT RightHandMiddle1
									{
										OFFSET -14.26970 0.00000 -0.09147
										CHANNELS 3 Zrotation Xrotation Yrotation
										JOINT RightHandMiddle2
										{
											OFFSET -6.17441 0.00000 0.00000
											CHANNELS 3 Zrotation Xrotation Yrotation
											JOINT RightHandMiddle3
											{
												OFFSET -3.56743 0.00000 0.00000
												CHANNELS 3 Zrotation Xrotation Yrotation
												End site
												{
													OFFSET 0.00000 0.00000 0.00000
												}
											}
										}
									}
									JOINT RightHandRing1
									{
										OFFSET -12.69180 0.00000 -3.06433
										CHANNELS 3 Zrotation Xrotation Yrotation
										JOINT RightHandRing2
										{
											OFFSET -5.62556 0.00000 0.00000
											CHANNELS 3 Zrotation Xrotation Yrotation
											JOINT RightHandRing3
											{
												OFFSET -3.56744 0.00000 0.00000
												CHANNELS 3 Zrotation Xrotation Yrotation
												End site
												{
													OFFSET 0.00000 0.00000 0.00000
												}
											}
										}
									}
									JOINT RightHandPinky1
									{
										OFFSET -11.11390 0.00000 -6.03719
										CHANNELS 3 Zrotation Xrotation Yrotation
										JOINT RightHandPinky2
										{
											OFFSET -4.52789 0.00000 0.00000
											CHANNELS 3 Zrotation Xrotation Yrotation
											JOINT RightHandPinky3
											{
												OFFSET -2.46976 0.00000 0.00000
												CHANNELS 3 Zrotation Xrotation Yrotation
												End site
												{
													OFFSET 0.00000 0.00000 0.00000
												}
											}
										}
									}
								}
							}
						}
					}
					JOINT LeftShoulder
					{
						OFFSET 0.01000 7.91373 5.19711
						CHANNELS 3 Zrotation Xrotation Yrotation
						JOINT LeftArm
						{
							OFFSET 18.41580 0.00000 0.00000
							CHANNELS 3 Zrotation Xrotation Yrotation
							JOINT LeftForeArm
							{
								OFFSET 29.11090 0.00000 0.00000
								CHANNELS 3 Zrotation Xrotation Yrotation
								JOINT LeftHand
								{
									OFFSET 24.65040 0.00000 0.00000
									CHANNELS 3 Zrotation Xrotation Yrotation
									JOINT LeftHandThumb1
									{
										OFFSET 5.35114 -0.85590 3.97906
										CHANNELS 3 Zrotation Xrotation Yrotation
										JOINT LeftHandThumb2
										{
											OFFSET 4.52789 0.00000 0.00000
											CHANNELS 3 Zrotation Xrotation Yrotation
											JOINT LeftHandThumb3
											{
												OFFSET 2.46977 0.00000 0.00000
												CHANNELS 3 Zrotation Xrotation Yrotation
												End site
												{
													OFFSET 0.00000 0.00000 0.00000
												}
											}
										}
									}
									JOINT LeftHandIndex1
									{
										OFFSET 14.26970 0.00000 2.88139
										CHANNELS 3 Zrotation Xrotation Yrotation
										JOINT LeftHandIndex2
										{
											OFFSET 5.48836 0.00000 0.00000
											CHANNELS 3 Zrotation Xrotation Yrotation
											JOINT LeftHandIndex3
											{
												OFFSET 3.01859 0.00000 0.00000
												CHANNELS 3 Zrotation Xrotation Yrotation
												End site
												{
													OFFSET 0.00000 0.00000 0.00000
												}
											}
										}
									}
									JOINT LeftHandMiddle1
									{
										OFFSET 14.26970 0.00000 -0.09147
										CHANNELS 3 Zrotation Xrotation Yrotation
										JOINT LeftHandMiddle2
										{
											OFFSET 6.17440 0.00000 0.00000
											CHANNELS 3 Zrotation Xrotation Yrotation
											JOINT LeftHandMiddle3
											{
												OFFSET 3.56744 0.00000 0.00000
												CHANNELS 3 Zrotation Xrotation Yrotation
												End site
												{
													OFFSET 0.00000 0.00000 0.00000
												}
											}
										}
									}
									JOINT LeftHandRing1
									{
										OFFSET 12.69180 0.00000 -3.06433
										CHANNELS 3 Zrotation Xrotation Yrotation
										JOINT LeftHandRing2
										{
											OFFSET 5.62556 0.00000 0.00000
											CHANNELS 3 Zrotation Xrotation Yrotation
											JOINT LeftHandRing3
											{
												OFFSET 3.56744 0.00000 0.00000
												CHANNELS 3 Zrotation Xrotation Yrotation
												End site
												{
													OFFSET 0.00000 0.00000 0.00000
												}
											}
										}
									}
									JOINT LeftHandPinky1
									{
										OFFSET 11.11390 0.00000 -6.03719
										CHANNELS 3 Zrotation Xrotation Yrotation
										JOINT LeftHandPinky2
										{
											OFFSET 4.52789 0.00000 0.00000
											CHANNELS 3 Zrotation Xrotation Yrotation
											JOINT LeftHandPinky3
											{
												OFFSET 2.46976 0.00000 0.00000
												CHANNELS 3 Zrotation Xrotation Yrotation
												End site
												{
													OFFSET 0.00000 0.00000 0.00000
												}
											}
										}
									}
								}
							}
						}
					}
					JOINT pCube4
					{
						OFFSET 0.00000 10.91090 1.10792
						CHANNELS 3 Zrotation Xrotation Yrotation
						End site
						{
							OFFSET 0.00000 0.00000 0.00000
						}
					}
				}
			}
		}
	}
	JOINT RightUpLeg
	{
		OFFSET -9.98441 0.00000 0.00000
		CHANNELS 3 Zrotation Xrotation Yrotation
		JOINT RightLeg
		{
			OFFSET 0.00000 -42.11790 0.00000
			CHANNELS 3 Zrotation Xrotation Yrotation
			JOINT RightFoot
			{
				OFFSET 0.00000 -45.00020 -0.00001
				CHANNELS 3 Zrotation Xrotation Yrotation
				JOINT RightForeFoot
				{
					OFFSET 0.00000 -3.74820 0.00000
					CHANNELS 3 Zrotation Xrotation Yrotation
					JOINT RightToeBase
					{
						OFFSET 0.00000 0.06325 14.43120
						CHANNELS 3 Zrotation Xrotation Yrotation
						End site
						{
							OFFSET 0.00000 0.00000 0.00000
						}
					}
				}
			}
		}
	}
	JOINT LeftUpLeg
	{
		OFFSET 9.98441 0.00000 0.00000
		CHANNELS 3 Zrotation Xrotation Yrotation
		JOINT LeftLeg
		{
			OFFSET 0.00000 -42.11800 0.00000
			CHANNELS 3 Zrotation Xrotation Yrotation
			JOINT LeftFoot
			{
				OFFSET 0.00000 -45.00070 0.00000
				CHANNELS 3 Zrotation Xrotation Yrotation
				JOINT LeftForeFoot
				{
					OFFSET 0.00000 -3.74824 0.00000
					CHANNELS 3 Zrotation Xrotation Yrotation
					JOINT LeftToeBase
					{
						OFFSET 0.00000 0.06325 14.43110
						CHANNELS 3 Zrotation Xrotation Yrotation
						End site
						{
							OFFSET 0.00000 0.00000 0.00000
						}
					}
				}
			}
		}
	}
}
MOTION
Frames: 4
Frame Time: 0.050000
-0.031738284068554216 -0.04585078168432911 0.00872915499543976 0.014637838838978998 -0.0087744605278299 2.930419207969013e-05 -2.604896959296107 1.0199453464331216 -0.8365859075630493 -1.0480698477235382 3.7863626811184243 0.4075470663890311 -1.2699362958156029 -1.738054596217486 -0.5679394109522047 0.13373174889174136 0.5122655072286374 -0.722054543756909 0.008466139131303764 12.71774490860075 -0.2915362817785071 0.1023252151759023 -0.3923408172263787 -2.8713346227807945 0.286919198251044 -15.607365523033685 -0.259739696663532 -4.486107674125222 1.6033296895209412 -13.952865079621827 67.85019075895764 21.83798196575586 9.674036429721589 5.3626435972083515 2.055792728064311 69.99157838475415 15.525377002045438 -0.23718503828142015 -2.317037804337407 4.4865246490727175 -0.1768059785454491 -1.5578404800364845 0.02095888330952688 0.01674188679567152 -56.25333276024162 0.009940356924764939 0.03544609286984997 -56.224852619661156 -38.75287160223841 0.04822584626841044 -0.04844019770313413 0.0028706153914304137 0.040480667717219705 -0.020220296083880086 -0.006069611701713958 0.044950979985637 0.004941858408487529 -36.74349337049256 0.03323913861897687 0.011701542232981702 0.015401035720080027 0.047062886219230146 -0.018119354567208482 -0.023009687513535923 0.016654021511013143 -0.024528819641114405 -19.71588447536972 -0.027123386170962095 -0.006577497227080178 -0.005114571615239226 -0.03885908541589415 -0.04399485250755662 -0.039775826580006134 -0.010925934763662963 0.04999785629092754 24.062283620707355 0.0321593979518375 -0.02335713479788171 28.826051282816447 -0.02561763743053464 -0.0022618015592738884 28.83337018276682 -0.04628377892877395 0.004555049068854303 5.220167474124676 1.280773635271818 12.737299536361895 -67.59624982177353 30.77010440556123 -9.589161553730102 -13.37242494118421 0.6526976251171294 -69.78404460868047 -9.138167071142965 -0.164820297572616 1.5615603993075007 -0.48414686738787954 0.03335351485070319 -8.169555299405737 -0.04940983618608443 -0.021694929543594355 44.615853274496004 0.04620695332552034 -0.022887060346327887 44.60712065134767 12.48573591941101 0.04860853574939753 0.021866652246693975 0.016085594008506694 -0.0019398356742549088 0.021673050840033802 -0.014099857178009436 0.029026924121489155 0.025602683296480435 11.064384996857582 -0.029005991155911025 -0.01945695126052752 -0.0007128909000285224 -0.0010081902778540442 0.04621813710620871 -0.025565769527739663 -0.03875084083572183 -0.019196343326168663 4.7666779930709415 0.010462240783001087 -0.01125701939466081 0.0023593387236356127 0.02868169158846401 -0.0408576485946911 -0.027268039610367306 0.040480084252574676 0.013071993236087508 -5.592655463820147 -0.034967515732691384 0.030942031392398667 -6.701228749728488 -0.0037020040058578473 -0.016371369107621197 -6.731779913884367 0.012437759030254954 0.02762326881259527 0.04203755346979827 0.024412764690898803 -0.0019085151474972652 8.063301289569296 3.5152794736224706 -19.19215457819241 0.025074069307830647 10.371184161273291 0.06320265123407352 -5.624596025265966 -15.616594678212996 3.154722342349774 0.0005994885675038702 -0.01802978238463631 0.04982702597851251 0.013860868189865374 4.710760271890023 0.03908410986471697 12.41227235727553 -8.287444481194589 6.912570154954473 -0.041667123513810765 46.42127238720702 -0.019265506707133468 -4.324767045760857 -14.768753316659064 -3.842659139532922 0.007082628639668974 -0.020802055279868815 -0.017979483679710348 -0.02179655784364083 -10.765457447796441 -0.018560525694964268 
-0.03746090735054165 0.0026034506305271325 0.048071146357383236 -0.023651465018803705 -0.025045559908157336 0.008203858023966473 -2.7114733338855848 1.0394910258298111 -0.826693244489266 -1.0183837791398176 3.763443476033955 0.4052202739486982 -1.2559990190240062 -1.7278031337568902 -0.5562435730370395 0.041758551331138316 0.4600762582885836 -0.7684396725561645 -0.05041051387453528 12.702580104518763 -0.26134003315395826 0.1394478575300257 -0.397135214664172 -2.62190435180981 0.3316081748668389 -15.621843126556303 -0.23212232946192596 -4.5326470250346675 1.6261608427789929 -13.955907880447096 67.65541366322947 21.837383139160092 9.397876514641183 4.0380668691009385 1.8594257902518851 71.24800339963555 15.810989505348186 -0.3009716587883053 -2.419301906956791 4.541236019379834 -0.09452270428378058 -1.613722335530115 0.02083935852572894 -0.02246322617291858 -56.255592573942046 0.03441134981256286 -0.007706407310899669 -56.233996811362736 -38.77557261143174 -0.04376506350764493 0.01816007316959801 -0.0013965892881423734 -0.04717756078497881 -0.01969303384474758 0.03294401377862249 0.025629719469711893 -0.04238529746656311 -36.71712466500944 -0.027612094369245006 0.00016126296549311378 -0.00736574885740194 0.02656152672587727 0.01897952385687634 -0.04576778014413149 0.0030582317108846205 -0.009196067271863177 -19.792119535949578 0.0032846726059924817 -0.045381384783366924 0.015092816680324103 -0.04521690664955295 -0.04060159259302153 -0.006711255323305513 0.042303118844203 -0.041673876537015146 24.03541720529336 -0.026257158842980643 -0.03929482953013394 28.894753800526214 0.024185630751709795 -0.033826588825844495 28.87716685560252 -0.03843137870556807 0.03967546445143766 5.248207534616692 1.28779591450298 12.755713901036675 -67.57076580182968 30.61802445994348 -9.57340672830667 -11.872594571491577 -0.08922371584393465 -69.68514019369248 -9.146020679109526 0.01067132513850338 1.5126262022648522 -0.5017922240272363 0.02302003010438499 -8.115665093382392 -0.02277450343651421 -0.02264362478802856 44.53304254121431 -0.04020830717878971 0.02884681651274938 44.58696220528705 12.425433021578847 -0.011039058636156292 -0.034657775179720345 -0.006430350975754483 0.01099431760097394 0.023892412594036214 -0.02948986724931076 0.03983013185463725 0.01752504638495413 11.142410822075968 -0.03746131240246268 -0.04644696083450826 -0.03666429244749621 0.005162646768120041 0.008731495013914145 0.03098343746654878 0.043334517750374446 -0.032573028468431596 4.723468545076684 -0.012677038834952832 0.002002963154679803 -0.030322891243058366 -0.016344076108234 0.030105687944334745 0.012760731956812505 0.022764250793313196 0.0487880609665967 -5.6480580233667625 0.04733077302860182 -0.04345270857164466 -6.747657107131634 -0.02112501778062219 0.040106413693765844 -6.715128852630829 0.03779994743539344 -0.03275152323602106 -0.04910187248795307 0.01152134757227639 0.017355431325277434 8.063765168409077 3.4581011990231607 -19.186841268414856 -0.002544849686359515 10.356037393074145 0.044288416530241854 -5.5904988693687105 -15.672235705497005 3.200399102826502 0.024917392916991018 0.040986630857812914 -0.008114169007695349 0.02096481630245111 4.706977002289018 -0.030958735038578825 12.44417490068934 -8.211491432381958 6.890568351053171 -0.032804197060210795 46.35840923600464 0.03270996738179353 -4.302046615162611 -14.75639538731842 -3.8057869166797853 0.033436625315887245 0.04293199729103442 0.0005061036434330291 -0.042924481532345404 -10.747938455876042 -0.02909165464805565 
0.02407534126082335 0.02738947982594401 0.013574693845646975 0.0005758759722236367 -0.014984000492382424 -0.039595795102103926 -2.85289141630401 0.9213790155552198 -0.7511969003480159 -0.9912681580428443 3.804494912629037 0.3763027965453413 -1.22267767248001 -1.6781569620667929 -0.5363469525289426 0.007067321604529771 0.47289831956336387 -0.7276408265288761 -0.060458619579111174 12.666552127553315 -0.08368179844359169 0.1154080674347918 -0.3449650995318666 -2.269732533354465 0.2997609143327894 -15.58799001108777 -0.1321347590062431 -4.601739396764851 1.6630327902080457 -13.95899990090952 67.36205720246834 21.940325975563955 9.357316192397779 2.159948392019457 1.5262696964864255 71.92216513739665 16.104005526452138 -0.2800137371203646 -2.4995221099608895 4.516770902091357 -0.10307946380430763 -1.6252706240792536 0.04790088658684032 0.027763689061755744 -56.19839390322999 -0.003568368934252345 0.015316234243425023 -56.20627101603732 -38.73746915471569 -0.04916423987845622 0.0017844051322140754 0.020364424807744832 -0.00508153650945976 -0.030529308834850905 -0.027010158354645774 0.0031994292135785695 0.017682344673145473 -36.69742558006568 -0.03819031488203635 -0.0195809223936655 0.03736413276851807 0.04195356630238449 0.017823235945878663 0.0004702376216652638 -0.026897593336526682 0.019856153188684472 -19.75049373831491 0.0031474312499345683 -0.028877768651243318 0.04138541216585894 0.010919412401278377 -0.009844425108268742 -0.008960804536941742 0.027544896194019616 0.027764816451464155 24.063591540594302 -0.0010344185953428961 0.0291379188824281 28.89794535813301 0.04383228698184374 0.020292269836731255 28.878154608213492 -0.03587082901330727 -0.004199756032068293 5.34191110723559 1.281294097211727 12.811117806007434 -67.49916929672295 30.490922669291173 -9.43149509872479 -9.786156268710018 -0.9389244962067386 -68.57735820778677 -9.345366546140296 0.23311317249877736 1.4193992009639718 -0.43356903229935034 0.09141799101443768 -8.133411847913957 -0.008263612527404889 0.025232085325294553 44.592502359795944 0.0011121793385497456 0.04815753694284078 44.567332385533966 12.479507851929496 0.0024654687839503362 0.012964842874947813 -0.01859331392362468 0.028731171938872258 -0.03645051789295774 -0.037626114442949776 0.018016477945400466 -0.006990850138501732 11.13654621598831 0.003919510983924427 0.043595680156868044 0.04654362817207846 -0.005176077272539624 -7.811766976534613e-05 -0.010032109047589142 0.02479028963707931 0.02658803181985638 4.726157485896631 -0.029143162638320824 0.02517639707827651 -0.04557993750113287 0.016518583081019084 0.005967391038036903 0.003902436442371758 -0.005868047255100643 0.0091104555060218 -5.585763234340541 0.01413860022441193 0.0042352050176388085 -6.686585993701248 0.018761454981502796 -0.029123419514937965 -6.723211617612674 0.01551105830910758 0.027457356364151985 -0.036598791510444255 0.045081966320310154 0.003346784729013547 8.011582809159083 3.444748610364148 -19.224475185099436 -0.005275819821143671 10.403229686769363 0.026575180524314488 -5.628588363658258 -15.654066737485842 3.195071518800533 0.01677814183979893 -0.012912194142992101 0.031614723363139315 0.014023212474386884 4.7159421750567105 -0.010213161534524402 12.432794047429503 -8.262964241480846 6.897554555652685 -0.015836365792945825 46.387012193838984 -0.023352033332656133 -4.304456166741024 -14.75406840959633 -3.841996222989313 0.045852658460256976 -0.04274787142411256 0.015509269283889234 -0.024598656833762386 -10.76994793292416 -0.011600434185081061 
0.010596999771327918 0.017989186181887103 0.013417611615876075 -0.017508953685376066 -0.04929307702784071 0.030592481756307854 -3.0728209239047777 0.8751274987304256 -0.6858427252317897 -1.070947758713636 3.8049973602578393 0.4260508912153108 -1.2953750258472934 -1.8068236678835892 -0.5193048504948432 -0.1731768603015352 0.452597217001631 -0.7580181556554653 -0.08263511032802535 12.66752814841956 0.11161620188331403 0.07160316005821872 -0.2639859360959655 -1.877058177795779 0.2896652075521516 -15.453238638214044 -0.17483927465956803 -4.649670344508258 1.684569332301337 -13.9051299979924 67.0434880742204 22.222117049517873 9.466544961830284 0.5847292085023315 1.3471393248665067 71.80997906800816 16.717805096037843 -0.3618158633075549 -2.681419049327223 4.5684928381223 -0.10300266890885176 -1.5843386185519537 -0.0047798112504182574 0.03783054469235034 -56.25685092947195 -0.018365921934973127 0.04944711502062668 -56.22678651898424 -38.79004857093921 0.013639368294998526 0.03538762029305063 0.0023822120090735087 0.017332390889218625 -0.017456101239236865 -0.02880447785002943 -0.029344949829509012 -0.0019025797416786006 -36.69433013971805 0.04277344854721648 -0.013671406091543662 -0.03395862655757618 0.00782750990582897 -0.008996462339966703 -0.016802777482907188 -0.018208377547879212 0.005328746542510292 -19.760389095066092 -0.024512726483904675 -0.015869507863328233 0.017705355366576993 -0.006144768322376023 0.003166059903733435 -0.00531545869040376 -0.04120863837338548 0.015560422563657028 24.09903060249563 0.005295079411868045 0.011997445235880725 28.892048109261577 -0.024728120116763123 -0.005550763761098818 28.885128328355997 -0.04863705062506134 -0.000629165730054684 5.340775665277656 1.316200058504623 12.896630958550347 -67.49793369522378 30.163852393629856 -9.18105603934774 -7.8426834217455745 -1.844640609208306 -66.67912394510793 -9.546797570585845 0.5666318628689037 1.324365077831074 -0.4580082761940245 0.03752525595053653 -8.160232566045561 -0.020833161968859433 0.001892047833567408 44.52655056937384 -0.025169853810224914 0.018979961813893075 44.520044190848274 12.475012237523524 0.0407446006333254 0.012908775652750526 -0.019555217395831097 0.04370953288058838 0.013145471898734756 0.03135845566732094 -0.005503878794948545 0.013555575162089913 11.082061484521994 -0.012247134386629487 0.007869612461517466 0.0059582242870918276 0.02364179002919412 -0.002042458107404816 0.04480955783679353 -0.02935888244793545 -0.023026586596814655 4.7716369180032565 -0.01212478223828856 0.005903598520122084 0.02275591768097364 -0.022625330792301723 -0.04237363384665443 0.028617993562827456 0.043175496251170516 0.0006524946747093649 -5.59735493487748 -0.009083907958633291 0.04023176879870988 -6.673016756215766 0.019181308902581466 0.028712636029613835 -6.719065626186808 -0.0027844296434557914 -0.0028232661827244146 -0.034061121494134795 -0.028941908016055274 -0.019468492348916483 8.060716932169157 3.4986294471257047 -19.23892667264693 -0.02943697209378664 10.395564097774283 0.03688636209951991 -5.614656010144313 -15.677145808415213 3.229484158973159 0.012599177622893525 -0.022985896652942244 -0.016144811544291187 0.004736766320304969 4.731490812073791 0.029422723080495695 12.471904762018365 -8.208366669758862 6.863309805986546 -0.02208227389935181 46.39236298874132 -0.031266725995174535 -4.311679155198767 -14.716757161958002 -3.800437321649298 -0.010625807659110377 0.031092359180139313 -0.017499542220118364 0.002601928769265684 -10.738987990530486 0.03673468620922515 
